<svg width="19" height="24" viewBox="0 0 19 24" fill="none" xmlns="http://www.w3.org/2000/svg">
<g opacity="0.7">
<path d="M14.3686 9.00113H4.4592C4.1857 9.00113 3.96371 9.22513 3.96371 9.50112V17.5007C3.96371 18.7086 4.81594 19.7176 5.9456 19.9506V22.5004C5.9456 23.3274 6.61249 24.0003 7.43201 24.0003C8.25153 24.0003 8.91841 23.3274 8.91841 22.5004V20.0006H9.90933V22.5004C9.90933 23.3274 10.5762 24.0003 11.3957 24.0003C12.2153 24.0003 12.8821 23.3274 12.8821 22.5004V19.9506C14.0118 19.7186 14.864 18.7086 14.864 17.5007V9.50112C14.864 9.22415 14.6421 9.00113 14.3686 9.00113Z" fill="white"/>
<path d="M12.0072 2.66449L12.8425 0.697581C12.9505 0.443579 12.8336 0.150627 12.5819 0.0416017C12.3332 -0.0684078 12.0389 0.0496169 11.9318 0.304603L11.0965 2.27249C10.5663 2.0985 10.0015 2.00152 9.41484 2.00152C8.82822 2.00152 8.26339 2.0985 7.7332 2.27249L6.89594 0.304603C6.78892 0.0496169 6.49461 -0.0693921 6.24587 0.0416017C5.99416 0.15058 5.87822 0.444564 5.98626 0.697581L6.82162 2.66449C5.1202 3.59645 3.96378 5.41533 3.96378 7.5012C3.96378 7.77719 4.18576 8.00119 4.45926 8.00119H14.3686C14.6421 8.00119 14.8641 7.77719 14.8641 7.5012C14.864 5.41533 13.7076 3.59645 12.0072 2.66449ZM7.43202 6.00129C7.15852 6.00129 6.93654 5.77728 6.93654 5.5013C6.93654 5.22531 7.15852 5.00131 7.43202 5.00131C7.70552 5.00131 7.9275 5.22531 7.9275 5.5013C7.9275 5.77728 7.70552 6.00129 7.43202 6.00129ZM11.3958 6.00129C11.1223 6.00129 10.9003 5.77728 10.9003 5.5013C10.9003 5.22531 11.1223 5.00131 11.3958 5.00131C11.6693 5.00131 11.8913 5.22531 11.8913 5.5013C11.8913 5.77728 11.6693 6.00129 11.3958 6.00129Z" fill="white"/>
<path d="M17.3414 9.00113C16.5219 9.00113 15.855 9.67408 15.855 10.501V15.5008C15.855 16.3278 16.5219 17.0007 17.3414 17.0007C18.1609 17.0007 18.8278 16.3278 18.8278 15.5008V10.501C18.8278 9.67412 18.1609 9.00113 17.3414 9.00113Z" fill="white"/>
<path d="M1.4864 9.00113C0.666884 9.00113 0 9.67408 0 10.501V15.5008C0 16.3278 0.666884 17.0007 1.4864 17.0007C2.30592 17.0007 2.97281 16.3278 2.97281 15.5008V10.501C2.97281 9.67412 2.30592 9.00113 1.4864 9.00113Z" fill="white"/>
</g>
</svg>
