<svg width="20" height="24" viewBox="0 0 20 24" fill="none" xmlns="http://www.w3.org/2000/svg">
<g opacity="0.7">
<path d="M6.52662 23.784C2.95466 23.7636 0 16.5378 0 12.8578C0 6.84655 4.55044 5.53053 6.30415 5.53053C7.09447 5.53053 7.93837 5.83809 8.68271 6.11026C9.20321 6.30012 9.74153 6.4961 10.0409 6.4961C10.2201 6.4961 10.6424 6.32938 11.0153 6.1831C11.8104 5.8694 12.7999 5.47952 13.9521 5.47952C13.9541 5.47952 13.9569 5.47952 13.9589 5.47952C14.8193 5.47952 17.4279 5.66664 18.9962 8.00063L19.3636 8.54771L18.8349 8.94307C18.0796 9.50785 16.7014 10.5381 16.7014 12.5788C16.7014 14.9958 18.2622 15.9254 19.012 16.3724C19.343 16.5698 19.6856 16.7732 19.6856 17.2182C19.6856 17.5088 17.3455 23.748 13.9472 23.748C13.1157 23.748 12.528 23.5003 12.0095 23.2819C11.4849 23.0607 11.0324 22.8702 10.2846 22.8702C9.90559 22.8702 9.42629 23.0478 8.91886 23.2363C8.22543 23.4928 7.44055 23.784 6.54996 23.784H6.52662Z" fill="white"/>
<path d="M14.3121 0C14.4006 3.16235 12.1185 5.35624 9.83899 5.21865C9.46338 2.69498 12.1182 0 14.3121 0Z" fill="white"/>
</g>
</svg>
