<svg width="53" height="52" viewBox="0 0 53 52" fill="none" xmlns="http://www.w3.org/2000/svg">
<path d="M26.0146 2.78089e-07C15.6092 -0.00151639 6.20501 6.20089 2.10946 15.7664L1.78533 15.8739L1.911 16.2509C-3.4814 29.5505 2.92857 44.7034 16.2282 50.0958C19.3345 51.3553 22.655 52.0018 26.0069 52C40.3663 52.0022 52.0087 40.3633 52.0108 26.0039C52.013 11.6445 40.3741 0.00205861 26.0146 2.78089e-07ZM46.4087 39.1088L45.0736 37.7745V34.6667C45.0751 34.5325 45.0454 34.3999 44.9869 34.2793L41.6069 27.5288V24.2667C41.6069 23.977 41.4623 23.7064 41.2213 23.5456L38.6213 21.8123C38.4175 21.6762 38.1656 21.6328 37.9279 21.6927L34.7438 22.4883L29.3956 20.1933L28.6598 15.0384L30.6991 13H35.0766L36.5499 15.2143C36.683 15.4134 36.8926 15.5488 37.1289 15.5879L42.3289 16.4545C42.4682 16.4779 42.611 16.4666 42.7449 16.4216L47.5341 14.8252C51.551 22.5337 51.1213 31.8049 46.4087 39.1088ZM42.8341 8.54013L41.4249 9.4796L37.4963 8.69353L34.9475 7.84507C34.7915 7.79209 34.6235 7.78538 34.4639 7.826L31.2416 8.63113L29.8289 8.16053L30.8759 6.06667H33.8069C33.9414 6.06677 34.074 6.03568 34.1943 5.97567L37.193 4.47633C39.258 5.55425 41.1578 6.92272 42.8341 8.54013ZM16.5143 3.6686L18.5943 5.05527C18.6966 5.1233 18.8121 5.1688 18.9332 5.18873L23.1331 5.889L22.7231 7.11533L20.5348 7.84593C20.3388 7.91115 20.1725 8.04418 20.0659 8.2212L17.5769 12.3691L13.5789 14.768L7.6856 15.6095C7.25844 15.6699 6.94081 16.0353 6.94026 16.4667V19.0667C6.94026 19.2965 7.0317 19.5169 7.1942 19.6794L8.6736 21.1588V22.6477L5.06826 20.2436L3.76046 16.3202C6.24866 10.6349 10.8092 6.11087 16.5143 3.6686ZM14.0469 32.084L10.1296 31.2997L8.6736 28.3955V26.3588L11.9028 23.1296L13.0979 25.5207C13.2447 25.8145 13.5451 26.0001 13.8736 26H19.4497L21.7975 29.913C21.9542 30.1738 22.2361 30.3332 22.5403 30.3333H24.9496L24.3429 33.3727L21.0617 36.6539C20.8989 36.8163 20.8073 37.0367 20.8069 37.2667V39.4333L17.6869 41.7733C17.4687 41.937 17.3403 42.1939 17.3403 42.4667V45.5971L16.2621 45.24L14.7403 41.4336V32.9333C14.7404 32.5214 14.4505 32.1663 14.0469 32.084ZM11.4417 45.4069C3.27026 39.2765 -0.185468 28.6841 2.79846 18.9141L3.51866 21.0739C3.57933 21.2566 3.69915 21.414 3.85926 21.5211L8.1796 24.401L7.1942 25.3873C7.0317 25.5498 6.94026 25.7701 6.94026 26V28.6C6.94016 28.7344 6.97125 28.867 7.03126 28.9874L8.7646 32.4541C8.88463 32.6935 9.10856 32.864 9.37126 32.916L13.0113 33.6431V41.6C13.0112 41.7101 13.0321 41.8193 13.0728 41.9215L14.8061 46.2549C14.901 46.4916 15.0954 46.6745 15.3374 46.7549L17.9374 47.6216C18.0243 47.6511 18.1153 47.6662 18.2069 47.6667C18.6855 47.6667 19.0736 47.2786 19.0736 46.8V42.9L22.1936 40.56C22.4118 40.3963 22.5403 40.1395 22.5403 39.8667V37.6255L25.753 34.4127C25.8738 34.2917 25.9561 34.1376 25.9896 33.9699L26.8563 29.6365C26.9501 29.1671 26.6457 28.7106 26.1763 28.6168C26.1205 28.6056 26.0638 28.6 26.0069 28.6H23.0308L20.683 24.687C20.5263 24.4262 20.2445 24.2668 19.9403 24.2667H14.4092L12.9203 21.2793C12.7956 21.0299 12.5585 20.8557 12.2833 20.8113C12.0081 20.7637 11.7272 20.8545 11.5319 21.0539L10.4069 22.1745V20.8C10.4069 20.5701 10.3155 20.3498 10.153 20.1873L8.6736 18.7079V17.2181L13.9967 16.458C14.111 16.4414 14.2209 16.4022 14.3199 16.3427L18.6533 13.7427C18.7748 13.6697 18.8766 13.5679 18.9497 13.4463L21.385 9.38773L23.6808 8.6216C23.94 8.53656 24.1435 8.33322 24.2285 8.07387L25.0952 5.47387C25.2453 5.01941 24.9987 4.5292 24.5442 4.37905C24.5023 4.36518 24.4593 4.35457 24.4157 4.3472L19.3995 3.51087L18.5181 2.92327C23.9719 1.14812 29.8789 1.36782 35.1858 3.54293L33.6024 4.33333H30.3403C30.0102 4.33149 29.7078 4.51739 29.5603 4.8126L27.8269 8.27927C27.6134 8.70762 27.7875 9.22805 28.2158 9.44158C28.2524 9.45977 28.2901 9.47538 28.3287 9.48827L30.9287 10.3549C31.0847 10.4079 31.2526 10.4146 31.4123 10.374L34.6346 9.56887L36.9954 10.3549C37.0292 10.3671 37.064 10.3764 37.0994 10.3827L41.4327 11.2493C41.6581 11.2953 41.8925 11.2491 42.0836 11.1211L44.0561 9.80547C45.0269 10.8867 45.8993 12.0524 46.6631 13.2886L42.3991 14.7099L37.7823 13.9403L36.257 11.6523C36.0971 11.4126 35.8284 11.2681 35.5403 11.2667H30.3403C30.1104 11.2667 29.89 11.3581 29.7275 11.5206L27.1275 14.1206C26.9345 14.3135 26.8436 14.5862 26.8823 14.8564L27.7489 20.9231C27.7926 21.223 27.9898 21.4784 28.2689 21.5965L34.3356 24.1965C34.5094 24.2718 34.7033 24.2872 34.8868 24.2407L37.9817 23.4667L39.8736 24.7303V27.7333C39.8721 27.8674 39.9018 28 39.9603 28.1207L43.3403 34.8712V38.1333C43.3403 38.3632 43.4317 38.5836 43.5942 38.7461L45.4073 40.56C37.3664 51.2777 22.1595 53.4479 11.4417 45.4069Z" fill="white"/>
<path d="M46.4087 39.1088L45.0736 37.7745V34.6667C45.0751 34.5325 45.0454 34.3999 44.9869 34.2793L41.6069 27.5288V24.2667C41.6069 23.977 41.4623 23.7064 41.2213 23.5456L38.6213 21.8123C38.4175 21.6762 38.1656 21.6328 37.9279 21.6927L34.7438 22.4883L29.3956 20.1933L28.6598 15.0384L30.6991 13H35.0766L36.5499 15.2143C36.683 15.4134 36.8926 15.5488 37.1289 15.5879L42.3289 16.4545C42.4682 16.4779 42.611 16.4666 42.7449 16.4216L47.5341 14.8252C51.551 22.5337 51.1213 31.8049 46.4087 39.1088Z" fill="white"/>
<path d="M42.8341 8.54013L41.4249 9.4796L37.4963 8.69353L34.9475 7.84507C34.7915 7.79209 34.6235 7.78538 34.4639 7.826L31.2416 8.63113L29.8289 8.16053L30.8759 6.06667H33.8069C33.9414 6.06677 34.074 6.03568 34.1943 5.97567L37.193 4.47633C39.258 5.55425 41.1578 6.92272 42.8341 8.54013Z" fill="white"/>
<path d="M16.5143 3.6686L18.5943 5.05527C18.6966 5.1233 18.8121 5.1688 18.9332 5.18873L23.1331 5.889L22.7231 7.11533L20.5348 7.84593C20.3388 7.91115 20.1725 8.04418 20.0659 8.2212L17.5769 12.3691L13.5789 14.768L7.6856 15.6095C7.25844 15.6699 6.94081 16.0353 6.94026 16.4667V19.0667C6.94026 19.2965 7.0317 19.5169 7.1942 19.6794L8.6736 21.1588V22.6477L5.06826 20.2436L3.76046 16.3202C6.24866 10.6349 10.8092 6.11087 16.5143 3.6686Z" fill="white"/>
<path d="M14.0469 32.084L10.1296 31.2997L8.6736 28.3955V26.3588L11.9028 23.1296L13.0979 25.5207C13.2447 25.8145 13.5451 26.0001 13.8736 26H19.4497L21.7975 29.913C21.9542 30.1738 22.2361 30.3332 22.5403 30.3333H24.9496L24.3429 33.3727L21.0617 36.6539C20.8989 36.8163 20.8073 37.0367 20.8069 37.2667V39.4333L17.6869 41.7733C17.4687 41.937 17.3403 42.1939 17.3403 42.4667V45.5971L16.2621 45.24L14.7403 41.4336V32.9333C14.7404 32.5214 14.4505 32.1663 14.0469 32.084Z" fill="white"/>
</svg>
