<svg width="52" height="52" viewBox="0 0 52 52" fill="none" xmlns="http://www.w3.org/2000/svg">
<path d="M50.7765 20.0792L46.7798 19.2104C46.4323 18.1464 46.0019 17.1085 45.4937 16.1088L47.7062 12.6671C48.1013 12.0522 48.0145 11.2449 47.4979 10.7283L41.2717 4.50208C40.7551 3.98553 39.9478 3.89865 39.3329 4.29379L35.8912 6.50635C34.8915 5.99814 33.8536 5.56769 32.7896 5.22015L31.9208 1.22351C31.7657 0.509399 31.1333 0 30.4025 0H21.5975C20.8667 0 20.2343 0.509399 20.0792 1.22351L19.2104 5.22015C18.1464 5.56769 17.1085 5.99814 16.1088 6.50635L12.6671 4.29379C12.0522 3.89865 11.2449 3.98553 10.7283 4.50208L4.50208 10.7283C3.98553 11.2449 3.89865 12.0522 4.29379 12.6671L6.50635 16.1088C5.99814 17.1085 5.56769 18.1464 5.22015 19.2104L1.22351 20.0792C0.509399 20.2347 0 20.8667 0 21.5975V30.4025C0 31.1333 0.509399 31.7653 1.22351 31.9208L5.22015 32.7896C5.56769 33.8536 5.99814 34.8915 6.50635 35.8912L4.29379 39.3329C3.89865 39.9478 3.98553 40.7551 4.50208 41.2717L10.7283 47.4979C11.2449 48.0145 12.0522 48.1013 12.6671 47.7062L16.1088 45.4937C17.1085 46.0019 18.1464 46.4323 19.2104 46.7798L20.0792 50.7765C20.2343 51.4906 20.8667 52 21.5975 52H30.4025C31.1333 52 31.7657 51.4906 31.9208 50.7765L32.7896 46.7798C33.8536 46.4323 34.8915 46.0019 35.8912 45.4937L39.3329 47.7062C39.9478 48.1013 40.7551 48.0149 41.2717 47.4979L47.4979 41.2717C48.0145 40.7551 48.1013 39.9478 47.7062 39.3329L45.4937 35.8912C46.0019 34.8915 46.4323 33.8536 46.7798 32.7896L50.7765 31.9208C51.4906 31.7653 52 31.1333 52 30.4025V21.5975C52 20.8667 51.4906 20.2347 50.7765 20.0792ZM35.3227 26C35.3227 31.1404 31.1404 35.3227 26 35.3227C20.8596 35.3227 16.6773 31.1404 16.6773 26C16.6773 20.8596 20.8596 16.6773 26 16.6773C31.1404 16.6773 35.3227 20.8596 35.3227 26Z" fill="white"/>
</svg>
