<svg width="20" height="13" viewBox="0 0 20 13" fill="none" xmlns="http://www.w3.org/2000/svg">
<path d="M17.5 5V2.5H16.25V5H13.75V6.25H16.25V8.75H17.5V6.25H20V5H17.5Z" fill="white"/>
<path d="M6.25 5V7.5H9.78625C9.27 8.955 7.88 10 6.25 10C4.1825 10 2.5 8.3175 2.5 6.25C2.5 4.1825 4.1825 2.5 6.25 2.5C7.14625 2.5 8.00875 2.82125 8.67875 3.405L10.3212 1.52C9.19625 0.54 7.75125 0 6.25 0C2.80375 0 0 2.80375 0 6.25C0 9.69625 2.80375 12.5 6.25 12.5C9.69625 12.5 12.5 9.69625 12.5 6.25V5H6.25Z" fill="white"/>
</svg>
