<svg width="20" height="19" viewBox="0 0 20 19" fill="none" xmlns="http://www.w3.org/2000/svg">
<path d="M4.2936 5.25H0V19H4.2936V5.25Z" fill="white"/>
<path d="M15.9888 5.41125C15.9432 5.39625 15.9 5.38 15.852 5.36625C15.7944 5.3525 15.7368 5.34125 15.678 5.33125C15.45 5.28375 15.2004 5.25 14.9076 5.25C12.4044 5.25 10.8168 7.14625 10.2936 7.87875V5.25H6V19H10.2936V11.5C10.2936 11.5 13.5384 6.7925 14.9076 10.25C14.9076 13.3363 14.9076 19 14.9076 19H19.2V9.72125C19.2 7.64375 17.8332 5.9125 15.9888 5.41125Z" fill="white"/>
<path d="M2.10001 4.24561C3.25981 4.24561 4.20001 3.29519 4.20001 2.1228C4.20001 0.950411 3.25981 0 2.10001 0C0.940205 0 0 0.950411 0 2.1228C0 3.29519 0.940205 4.24561 2.10001 4.24561Z" fill="white"/>
</svg>
