<svg width="16" height="20" viewBox="0 0 16 20" fill="none" xmlns="http://www.w3.org/2000/svg">
<path d="M8.06076 0C2.79853 0 0 3.51266 0 7.34283C0 9.11916 0.952843 11.3343 2.47811 12.0368C2.70972 12.1455 2.83573 12.0993 2.88733 11.8755C2.93293 11.7055 3.13334 10.8867 3.23054 10.5005C3.26055 10.3767 3.24495 10.2692 3.14894 10.153C2.64252 9.54293 2.2405 8.43163 2.2405 7.38908C2.2405 4.71771 4.27939 2.12385 7.74875 2.12385C10.7489 2.12385 12.8478 4.15394 12.8478 7.05782C12.8478 10.3392 11.1809 12.6093 9.0148 12.6093C7.81595 12.6093 6.92311 11.6293 7.20632 10.4167C7.54834 8.9729 8.21917 7.42033 8.21917 6.37904C8.21917 5.44524 7.71275 4.67271 6.6783 4.67271C5.45784 4.67271 4.4678 5.93152 4.4678 7.62159C4.4678 8.69539 4.83262 9.42042 4.83262 9.42042C4.83262 9.42042 3.62536 14.5007 3.40095 15.4494C3.02174 17.0558 3.45255 19.6571 3.48976 19.8809C3.51256 20.0046 3.64576 20.0434 3.72017 19.9421C3.83897 19.7796 5.29824 17.6108 5.70746 16.0432C5.85626 15.4719 6.46709 13.1556 6.46709 13.1556C6.86911 13.9119 8.02956 14.5457 9.26562 14.5457C12.9426 14.5457 15.5995 11.1793 15.5995 7.00156C15.5863 2.99638 12.2958 0 8.06076 0Z" fill="white"/>
</svg>
