<svg width="20" height="14" viewBox="0 0 20 14" fill="none" xmlns="http://www.w3.org/2000/svg">
<path d="M18.384 1.325C17.8632 0.36 17.298 0.1825 16.1472 0.115C14.9976 0.03375 12.1068 0 9.6024 0C7.0932 0 4.2012 0.0337501 3.0528 0.11375C1.9044 0.1825 1.338 0.35875 0.8124 1.325C0.276 2.28875 0 3.94875 0 6.87125C0 6.87375 0 6.875 0 6.875C0 6.8775 0 6.87875 0 6.87875V6.88125C0 9.79125 0.276 11.4637 0.8124 12.4175C1.338 13.3825 1.9032 13.5575 3.0516 13.6388C4.2012 13.7088 7.0932 13.75 9.6024 13.75C12.1068 13.75 14.9976 13.7087 16.1484 13.64C17.2992 13.5587 17.8644 13.3838 18.3852 12.4188C18.9264 11.465 19.2 9.7925 19.2 6.8825C19.2 6.8825 19.2 6.87875 19.2 6.87625C19.2 6.87625 19.2 6.87375 19.2 6.8725C19.2 3.94875 18.9264 2.28875 18.384 1.325ZM7.2 10.625V3.125L13.2 6.875L7.2 10.625Z" fill="white"/>
</svg>
